#!OML:ASF G:\ViconDB\ViconDB\414\test\team2\shane.ASF
:FULLY-SPECIFIED
:DEGREES
167
root 3.82692 17.3205 -17.1164 -4.74971 8.48568 -7.27611
lowerback 8.70458 -0.259573 5.40032
upperback 4.71104 0.0932602 2.3598
thorax 0.0177847 0.120841 -0.599607
lowerneck -20.3029 -0.561774 -4.1405
upperneck 14.9334 -0.870192 6.73441
head 8.00334 0.0447523 2.82908
rclavicle -1.42536e-014 -6.22716e-015
rhumerus -79.4188 21.7372 -106.469
rradius 38.9916
rwrist 23.279
rhand -15.9587 -6.05373
rfingers 7.12502
rthumb 10.24 -35.7845
lclavicle -2.13694e-014 -1.80894e-014
lhumerus -59.1542 -13.5624 100.762
lradius 19.5709
lwrist -24.719
lhand -30.3353 5.8509
lfingers 7.12502
lthumb -3.64126 35.7995
rfemur 15.853 -9.99504 17.7902
rtibia 10.378
rfoot -4.75542 -4.64043
rtoes -10.271
lfemur -3.29625 1.22685 -6.9478
ltibia 33.1415
lfoot -19.9636 -10.7691
ltoes -12.4879
168
root 3.83953 17.2731 -17.1014 -4.83109 7.99281 -7.29371
lowerback 8.79149 -0.103156 5.47492
upperback 4.56157 0.318464 2.29304
thorax -0.173029 0.228565 -0.73028
lowerneck -19.9753 -0.556155 -3.99906
upperneck 14.8651 -0.932015 6.85005
head 7.92879 0.030048 2.83323
rclavicle -2.38417e-014 -2.63141e-014
rhumerus -78.0531 23.4747 -106.67
rradius 38.0045
rwrist 23.3214
rhand -16.8878 -6.60496
rfingers 7.12502
rthumb 9.34365 -36.3779
lclavicle -2.13694e-014 -1.80894e-014
lhumerus -59.1542 -13.5624 100.762
lradius 19.5709
lwrist -24.719
lhand -30.3353 5.8509
lfingers 7.12502
lthumb -3.64126 35.7995
rfemur 16.7343 -9.50378 17.8422
rtibia 8.94751
rfoot -4.98856 -4.95663
rtoes -10.7342
lfemur -2.7493 0.983784 -6.99528
ltibia 32.7977
lfoot -20.687 -9.90221
ltoes -12.4501
169
root 3.84407 17.2216 -17.0857 -4.9115 7.55149 -7.45039
lowerback 8.80532 0.0410454 5.43128
upperback 4.41238 0.514756 2.36331
thorax -0.326912 0.319239 -0.651317
lowerneck -19.6621 -0.505987 -3.89415
upperneck 14.8604 -0.914162 6.9156
head 7.87269 0.0462984 2.83747
rclavicle -7.01027e-015 -1.44119e-015
rhumerus -76.0232 24.979 -105.975
rradius 36.5408
rwrist 24.1789
rhand -17.6107 -6.60506
rfingers 7.12502
rthumb 8.64606 -36.408
lclavicle -2.13694e-014 -1.80894e-014
lhumerus -59.1542 -13.5624 100.762
lradius 19.5709
lwrist -24.719
lhand -30.3353 5.8509
lfingers 7.12502
lthumb -3.64126 35.7995
rfemur 17.5765 -9.09803 18.1074
rtibia 7.56556
rfoot -5.257 -5.33948
rtoes -10.721
lfemur -2.24403 0.999098 -6.81018
ltibia 32.4044
lfoot -21.4186 -9.34985
ltoes -12.0315
170
root 3.85069 17.173 -17.069 -4.92207 7.02631 -7.29296
lowerback 8.8574 0.190908 5.20259
upperback 4.25078 0.705266 2.28809
thorax -0.517125 0.405031 -0.619923
lowerneck -19.3824 -0.414945 -3.74452
upperneck 14.818 -0.843119 6.94864
head 7.80627 0.0872448 2.82937
rclavicle -6.93262e-015 -1.64991e-014
rhumerus -73.5959 26.4146 -105.075
rradius 34.8592
rwrist 25.4435
rhand -18.2682 -6.87024
rfingers 7.12502
rthumb 8.01146 -36.6984
lclavicle -2.13694e-014 -1.80894e-014
lhumerus -59.1542 -13.5624 100.762
lradius 19.5709
lwrist -24.719
lhand -30.3353 5.8509
lfingers 7.12502
lthumb -3.64126 35.7995
rfemur 18.5 -8.57641 18.0397
rtibia 5.9038
rfoot -5.33243 -5.75318
rtoes -10.5106
lfemur -1.73019 1.49792 -6.94232
ltibia 32.057
lfoot -22.2301 -8.96228
ltoes -11.7754
171
root 3.85532 17.1263 -17.052 -4.90722 6.51072 -7.31299
lowerback 8.91189 0.376725 5.34456
upperback 4.04627 0.972966 2.11999
thorax -0.740454 0.533583 -0.899369
lowerneck -19.2705 -0.479189 -3.73401
upperneck 14.9326 -1.0068 7.28633
head 7.83775 0.0436349 2.92262
rclavicle 1.67352e-014 -2.29596e-014
rhumerus -70.4261 27.128 -103.459
rradius 32.8161
rwrist 27.4457
rhand -18.8637 -7.09222
rfingers 7.12502
rthumb 7.43669 -36.9415
lclavicle -2.13694e-014 -1.80894e-014
lhumerus -59.1542 -13.5624 100.762
lradius 19.5709
lwrist -24.719
lhand -30.3353 5.8509
lfingers 7.12502
lthumb -3.64126 35.7995
rfemur 19.6173 -8.09635 18.2022
rtibia 3.71876
rfoot -5.06222 -6.21446
rtoes -10.3392
lfemur -1.29389 1.72994 -6.87452
ltibia 31.8183
lfoot -22.9029 -8.6047
ltoes -11.178
172
root 3.86173 17.0912 -17.0409 -4.65145 6.12183 -7.59965
lowerback 8.66683 0.500079 5.77089
upperback 3.74452 1.16418 2.03811
thorax -0.896018 0.62507 -1.2386
lowerneck -18.9419 -0.369618 -3.23217
upperneck 14.9888 -0.962945 7.06341
head 7.79437 0.0667236 2.76793
rclavicle -2.73329e-014 -5.56597e-015
rhumerus -66.3461 27.1699 -100.616
rradius 30.3352
rwrist 30.8089
rhand -19.4217 -6.81565
rfingers 7.12502
rthumb 6.89812 -36.6833
lclavicle -2.73329e-014 -5.56597e-015
lhumerus -61.4127 -17.5306 94.83
lradius 23.4296
lwrist -18.3137
lhand -29.992 6.52118
lfingers 7.12502
lthumb -3.30969 36.4752
rfemur 21.0863 -7.81187 18.7645
rtibia -3.81667e-014
rfoot -3.87794 -6.6293
rtoes -10.5737
lfemur -1.27235 1.98596 -6.5748
ltibia 31.6425
lfoot -23.512 -8.2046
ltoes -10.4673
173
root 3.86224 17.0566 -17.026 -4.47725 5.6564 -7.4611
lowerback 8.55277 0.66751 5.49423
upperback 3.53351 1.36475 2.01793
thorax -1.04706 0.715385 -1.12369
lowerneck -18.9549 -0.32731 -3.00345
upperneck 15.1719 -0.924512 6.78713
head 7.85259 0.0730419 2.64496
rclavicle 1.10822e-014 1.51076e-014
rhumerus -61.186 26.0661 -96.1609
rradius 27.6512
rwrist 35.8171
rhand -19.7054 -6.62129
rfingers 7.12502
rthumb 6.62417 -36.4977
lclavicle 1.10822e-014 1.51076e-014
lhumerus -58.684 -18.1883 93.933
lradius 22.1675
lwrist -19.1317
lhand -30.5242 6.37224
lfingers 7.12502
lthumb -3.8237 36.3177
rfemur 21.0382 -7.3718 18.7807
rtibia 6.67916e-014
rfoot -4.81452 -7.16811
rtoes -10.5154
lfemur -1.15357 3.05754 -6.61712
ltibia 31.5429
lfoot -24.2197 -8.17552
ltoes -10.0211
174
root 3.85636 17.0277 -17.0121 -4.32679 5.35134 -7.47448
lowerback 8.33676 0.789247 5.36399
upperback 3.31884 1.50936 1.99453
thorax -1.1454 0.780787 -1.08664
lowerneck -18.9352 -0.318622 -2.82451
upperneck 15.4643 -0.954602 6.6706
head 7.94691 0.0608806 2.57709
rclavicle 4.08751e-014 -2.98177e-015
rhumerus -54.8977 22.1479 -89.6559
rradius 24.5478
rwrist 44.1394
rhand -20.4255 -6.28539
rfingers 7.12502
rthumb 5.929 -36.1824
lclavicle 4.08751e-014 -2.98177e-015
lhumerus -55.3234 -18.1591 92.0565
lradius 20.3773
lwrist -21.576
lhand -31.0153 5.98625
lfingers 7.12502
lthumb -4.29795 35.9226
rfemur 20.9874 -7.11106 18.9562
rtibia -6.99722e-014
rfoot -5.61327 -7.65519
rtoes -10.1234
lfemur -1.05511 3.52346 -6.54876
ltibia 31.4881
lfoot -24.8924 -7.87894
ltoes -9.13142
175
root 3.86198 16.9935 -17.0046 -4.31389 5.13555 -7.30121
lowerback 8.23034 0.860256 5.34917
upperback 3.13737 1.60047 1.87867
thorax -1.26666 0.8209 -1.20623
lowerneck -18.9248 -0.35822 -2.94891
upperneck 15.7901 -1.02298 6.83326
head 8.05905 0.0412896 2.64945
rclavicle 5.24295e-015 -1.09332e-014
rhumerus -48.5503 14.6172 -81.6534
rradius 21.6468
rwrist 55.0962
rhand -21.6061 -6.27059
rfingers 7.12502
rthumb 4.78913 -36.1965
lclavicle 5.24295e-015 -1.09332e-014
lhumerus -51.5715 -17.0299 89.3661
lradius 18.3889
lwrist -25.891
lhand -31.6321 6.42247
lfingers 7.12502
lthumb -4.8935 36.346
rfemur 21.0749 -6.88455 18.8041
rtibia 2.8625e-014
rfoot -6.41442 -8.05212
rtoes -9.34876
lfemur -0.831016 3.67888 -6.84448
ltibia 31.4311
lfoot -25.3242 -7.32226
ltoes -8.57621
176
root 3.86333 16.9666 -16.9993 -4.3674 5.02237 -7.35467
lowerback 8.20761 0.865931 5.48176
upperback 2.89914 1.62662 1.83601
thorax -1.49419 0.825337 -1.32934
lowerneck -18.7727 -0.360781 -2.95436
upperneck 16.0956 -1.06141 6.92592
head 8.13757 0.0335869 2.68089
rclavicle -9.69075e-016 9.14409e-015
rhumerus -43.572 3.34623 -73.1646
rradius 19.217
rwrist 68.1209
rhand -23.4261 -6.24166
rfingers 7.12502
rthumb 3.03163 -36.1999
lclavicle -9.69075e-016 9.14409e-015
lhumerus -47.734 -14.5731 86.0307
lradius 16.498
lwrist -31.0892
lhand -32.1584 6.86157
lfingers 7.12502
lthumb -5.4017 36.7727
rfemur 21.1862 -6.79298 18.9146
rtibia 3.18055e-015
rfoot -6.93604 -8.34441
rtoes -9.17469
lfemur -0.618777 4.21821 -6.75314
ltibia 31.3602
lfoot -25.729 -7.2941
ltoes -7.95295
177
root 3.86792 16.949 -16.993 -4.35483 4.82021 -7.32833
lowerback 7.96896 0.920331 5.60543
upperback 2.69041 1.69908 1.7818
thorax -1.5683 0.856545 -1.45816
lowerneck -18.4991 -0.353073 -3.02035
upperneck 16.345 -1.05717 6.96454
head 8.17325 0.0339065 2.70743
rclavicle -1.2424e-014 1.72943e-014
rhumerus -40.9956 -8.13478 -66.7019
rradius 18.2069
rwrist 77.9821
rhand -25.6197 -7.51488
rfingers 7.12502
rthumb 0.913062 -37.4927
lclavicle -1.2424e-014 1.72943e-014
lhumerus -44.1196 -11.1987 82.7336
lradius 15.0373
lwrist -35.9725
lhand -33.2225 7.29919
lfingers 7.12502
lthumb -6.42906 37.1816
rfemur 21.2223 -6.59995 18.9359
rtibia 3.18055e-015
rfoot -7.31183 -8.62971
rtoes -8.73235
lfemur -0.468087 4.58745 -6.82088
ltibia 31.2804
lfoot -26.0182 -7.00805
ltoes -7.7146
178
root 3.87076 16.9388 -16.9908 -4.35731 4.73141 -7.3524
lowerback 7.7554 0.922206 5.75419
upperback 2.4752 1.70657 1.76677
thorax -1.66734 0.85426 -1.55532
lowerneck -18.4068 -0.375254 -3.22257
upperneck 16.8388 -1.08162 7.07505
head 8.32531 0.025103 2.78365
rclavicle 3.13086e-014 -2.98177e-015
rhumerus -39.895 -17.5317 -62.5426
rradius 18.2038
rwrist 84.4769
rhand -28.2346 -9.72263
rfingers 7.12502
rthumb -1.61249 -39.6963
lclavicle 3.13086e-014 -2.98177e-015
lhumerus -40.9423 -7.56935 80.0855
lradius 14.0928
lwrist -40.4468
lhand -34.1874 8.17835
lfingers 7.12502
lthumb -7.36043 38.0303
rfemur 21.2148 -6.53166 19.023
rtibia 1.27222e-014
rfoot -7.41666 -8.92206
rtoes -8.85107
lfemur -0.338151 5.05103 -6.72736
ltibia 31.1788
lfoot -26.1797 -7.22046
ltoes -7.33063
